{"title":"The Veteran 2011 DVDrip English Klam","uid":6564055,"size":1472341878,"categoryP":"video","categoryS":"movies","magnet":"?xt=urn:btih:06f7f8c26acfc348513014731e5a551aa2a06c57&amp;dn=The+Veteran+2011+DVDrip+English+Klam&amp;tr=udp%3A%2F%2Ftracker.openbittorrent.com%3A80&amp;tr=udp%3A%2F%2Fopen.demonii.com%3A1337&amp;tr=udp%3A%2F%2Ftracker.coppersurfer.tk%3A6969&amp;tr=udp%3A%2F%2Fexodus.desync.com%3A6969","seeders":1,"leechers":0,"uploader":"Klambake","files":-1,"time":1311599462,"description":"[img] http://img692.imageshack.us/img692/9517/74954.jpg[/img]\n\nWith: Toby Kebbell, Brian Cox and Tony Curran\n\nSoldaat Robert Miller keert terug uit Afghanistan maar kan zich niet intergreren in de samenleving. Hij vindt een baan als undercoveragent en schaduwt hierbij vermoedelijke terroristen. Dan raakt hij geobsedeerd door een jonge Engelse-Aziatische vrouw en wil hij haar redden uit de klauwen van een groep fanatiekelingen. Wanneer zijn plan om de fanatiekelingen te vermoorden wordt gesaboteerd door de veiligheidsdienst is hij woedend. Wanneer hij het heft in eigen hand neemt begint hij aan een wrede zoektocht naar rechtvaardigheid met verwoestende gevolgen.\n\nA soldier returning from the war in Afghanistan uncovers a conspiracy involving the intelligence services and a gang of drug dealers. \n\n------------------ Dutch Friends ------------------\nYou can find my Friends at: http://www.Film-Test.nl \n------ They got my dutchs subs ---- and more ------\n\nGeneral:\n\nComplete name                    : The Veteran\\The Veteran.avi\nFormat                           : AVI\nFormat/Info                      : Audio Video Interleave\nFile size                        : 1.37 GiB\nDuration                         : 1h 34mn\nOverall bit rate                 : 2 084 Kbps\n\nVideo:\n\nFormat                           : MPEG-4 Visual\nFormat profile                   : Simple@L3\nFormat settings, BVOP            : No\nFormat settings, QPel            : No\nFormat settings, GMC             : No warppoints\nFormat settings, Matrix          : Default (H.263)\nCodec ID                         : XVID\nCodec ID/Hint                    : XviD\nDuration                         : 1h 34mn\nBit rate                         : 1 625 Kbps\nWidth                            : 704 pixels\nHeight                           : 396 pixels\nDisplay aspect ratio             : 16:9\nFrame rate                       : 25.000 fps\nColor space                      : YUV\nChroma subsampling               : 4:2:0\nBit depth                        : 8 bits\nScan type                        : Progressive\nBits/(Pixel*Frame)               : 0.233\nStream size                      : 1.07 GiB (78%)\nWriting library                  : XviD 1.1.2 (UTC 2006-11-01)\n\nAudio:\n\nFormat                           : AC-3\nFormat/Info                      : Audio Coding 3\nMode extension                   : CM (complete main)\nCodec ID                         : 2000\nDuration                         : 1h 34mn\nBit rate mode                    : Constant\nBit rate                         : 448 Kbps\nChannel(s)                       : 6 channels\nChannel positions                : Front: L C R, Side: L R, LFE\nSampling rate                    : 48.0 KHz\nBit depth                        : 16 bits\nStream size                      : 302 MiB (21%)\nAlignment                        : Aligned on interleaves\nInterleave, duration             : 32 ms (0.80 video frame)\nInterleave, preload duration     : 384 ms\n","torrent":{"xt":"urn:btih:06f7f8c26acfc348513014731e5a551aa2a06c57","amp;dn":"The+Veteran+2011+DVDrip+English+Klam","amp;tr":["udp%3A%2F%2Ftracker.openbittorrent.com%3A80","udp%3A%2F%2Fopen.demonii.com%3A1337","udp%3A%2F%2Ftracker.coppersurfer.tk%3A6969","udp%3A%2F%2Fexodus.desync.com%3A6969"],"infoHash":"06f7f8c26acfc348513014731e5a551aa2a06c57","infoHashBuffer":{"type":"Buffer","data":[6,247,248,194,106,207,195,72,81,48,20,115,30,90,85,26,162,160,108,87]},"announce":[],"urlList":[]}}